<?xml version="1.0" standalone="no"?>
<!DOCTYPE svg PUBLIC "-//W3C//DTD SVG 20010904//EN"
 "http://www.w3.org/TR/2001/REC-SVG-20010904/DTD/svg10.dtd">
<svg version="1.0" xmlns="http://www.w3.org/2000/svg"
 width="500.000000pt" height="500.000000pt" viewBox="0 0 500.000000 500.000000"
 preserveAspectRatio="xMidYMid meet">
<metadata>
Created by potrace 1.14, written by Peter Selinger 2001-2017
</metadata>
<g transform="translate(0.000000,500.000000) scale(0.100000,-0.100000)"
fill="#000000" stroke="none">
<path d="M2190 4364 c-261 -17 -464 -49 -645 -100 -562 -159 -1026 -548 -1169
-979 -46 -136 -56 -226 -56 -481 0 -330 22 -466 106 -643 96 -203 242 -349
499 -496 377 -216 676 -271 1621 -296 241 -6 440 -13 442 -14 1 -1 -9 -35 -24
-76 -66 -184 -201 -408 -334 -555 -48 -53 -57 -80 -34 -105 22 -24 41 -24 105
1 28 12 53 19 55 18 1 -2 -30 -43 -69 -92 -101 -124 -111 -141 -98 -165 17
-32 44 -33 115 -7 99 37 320 150 411 211 238 156 383 343 465 600 17 55 40
125 49 155 l17 54 85 34 c71 29 98 35 174 37 207 5 480 130 652 299 63 62 73
76 73 107 0 44 -15 59 -58 59 -29 0 -46 -11 -101 -63 -37 -34 -82 -73 -101
-86 -20 -13 -11 -2 20 25 215 188 349 397 394 616 23 113 24 520 1 653 -40
233 -130 428 -270 583 -107 119 -358 299 -555 397 -247 124 -444 180 -880 249
-287 46 -692 73 -890 60z m490 -124 c510 -36 930 -129 1211 -270 303 -152 505
-307 613 -469 40 -60 106 -189 106 -207 0 -3 -16 16 -36 43 -57 76 -102 120
-209 206 -253 204 -546 354 -824 422 -196 49 -539 105 -796 130 -188 19 -558
22 -725 5 -446 -43 -819 -179 -1137 -412 -83 -61 -258 -226 -312 -293 l-32
-40 30 60 c120 246 442 510 798 655 245 99 457 144 818 173 94 8 361 6 495 -3z
m755 -850 c3 -5 9 -41 12 -78 l6 -69 53 -18 c30 -10 54 -23 54 -28 0 -6 -18
-35 -41 -64 -30 -40 -45 -53 -57 -48 -86 35 -218 32 -302 -7 -117 -54 -197
-159 -221 -290 -41 -222 130 -433 360 -445 52 -3 92 1 126 11 l50 16 28 -32
c16 -18 36 -44 45 -57 15 -22 15 -24 -3 -38 -11 -7 -36 -18 -56 -24 -36 -11
-36 -12 -42 -75 -7 -91 -11 -94 -126 -94 -53 0 -103 4 -111 10 -9 6 -16 31
-18 77 l-4 69 -42 16 c-22 9 -55 22 -73 29 -30 12 -33 11 -77 -29 -25 -23 -55
-42 -68 -42 -25 0 -158 128 -158 152 0 9 20 40 44 68 l44 52 -24 51 c-13 29
-24 57 -24 64 0 20 -35 33 -87 33 -74 0 -74 1 -71 131 2 92 6 114 18 116 8 1
41 5 73 8 42 5 60 11 64 23 3 9 16 41 29 70 l23 52 -44 51 c-25 27 -45 57 -45
65 0 17 113 140 144 156 14 8 24 5 41 -8 13 -11 39 -31 57 -46 l34 -28 70 30
69 29 6 63 c3 35 9 69 13 76 9 15 222 17 231 2z m-1322 -83 c138 -47 255 -142
314 -252 25 -49 73 -181 73 -202 0 -3 -20 13 -45 36 -93 85 -182 128 -340 163
-71 15 -148 21 -360 26 -265 7 -271 8 -327 34 -66 31 -147 106 -177 166 -12
23 -21 44 -21 47 0 3 188 5 418 2 355 -3 424 -6 465 -20z m128 -342 c138 -54
217 -134 245 -248 15 -59 15 -72 0 -143 -46 -229 -206 -392 -428 -438 -59 -12
-138 -16 -333 -16 l-255 0 0 301 0 302 52 -6 c70 -9 135 -50 173 -111 26 -43
30 -60 34 -139 l3 -89 142 4 c169 4 221 22 289 98 100 111 114 316 32 457 -24
39 -29 53 -22 53 2 0 32 -11 68 -25z"/>
<path d="M680 4263 c-141 -83 -332 -305 -409 -475 -47 -104 -92 -259 -98 -335
-5 -67 -4 -73 21 -98 54 -54 103 -9 130 122 64 302 197 513 434 690 75 56 83
72 56 111 -22 32 -60 28 -134 -15z"/>
</g>
</svg>
